<svg width="53" height="76" viewBox="0 0 53 76" fill="none" xmlns="http://www.w3.org/2000/svg">
<path d="M26.3216 0.460938C11.9469 0.460938 0.251953 12.1559 0.251953 26.5306C0.251953 44.598 26.3472 75.4609 26.3472 75.4609C26.3472 75.4609 52.3913 43.7095 52.3913 26.5306C52.3913 12.1559 40.6968 0.460938 26.3216 0.460938ZM34.1874 34.1638C32.0185 36.3322 29.1703 37.4167 26.3216 37.4167C23.4734 37.4167 20.6243 36.3322 18.4563 34.1638C14.119 29.8269 14.119 22.77 18.4563 18.4327C20.5565 16.3316 23.3503 15.1744 26.3216 15.1744C29.293 15.1744 32.0862 16.3321 34.1874 18.4327C38.5247 22.77 38.5247 29.8269 34.1874 34.1638Z" fill="#1DAC8A"/>
</svg>
