<svg width="60" height="60" viewBox="0 0 60 60" fill="none" xmlns="http://www.w3.org/2000/svg">
<rect width="60" height="60" rx="30" fill="white"/>
<g clip-path="url(#clip0)">
<path d="M40.8486 35.88C39.0364 34.33 37.1971 33.391 35.4071 34.9388L34.3382 35.8742C33.5562 36.5532 32.1021 39.7259 26.4803 33.2588C20.8596 26.7998 24.2044 25.7942 24.9876 25.121L26.0623 24.1844C27.843 22.6332 27.171 20.6804 25.8867 18.6703L25.1117 17.4527C23.8215 15.4472 22.4166 14.1302 20.6313 15.679L19.6666 16.522C18.8775 17.0968 16.6719 18.9653 16.1368 22.5149C15.4929 26.7741 17.5242 31.6513 22.1778 37.0028C26.8256 42.3565 31.3763 45.0457 35.6869 44.9988C39.2693 44.9602 41.4328 43.0379 42.1095 42.3389L43.0777 41.4948C44.8584 39.9471 43.7521 38.3713 41.9386 36.8178L40.8486 35.88Z" fill="#1DAC8A"/>
</g>
<defs>
<clipPath id="clip0">
<rect width="30" height="30" fill="white" transform="translate(15 15)"/>
</clipPath>
</defs>
</svg>
