<svg width="17" height="24" viewBox="0 0 17 24" fill="none" xmlns="http://www.w3.org/2000/svg">
<path d="M8.28788 0.269043C3.79579 0.269043 0.141113 3.92371 0.141113 8.4158C0.141113 14.0619 8.29589 23.7065 8.29589 23.7065C8.29589 23.7065 16.4346 13.7842 16.4346 8.4158C16.4346 3.92371 12.7801 0.269043 8.28788 0.269043ZM10.7459 10.8012C10.0682 11.4788 9.17809 11.8177 8.28788 11.8177C7.39782 11.8177 6.50747 11.4788 5.82997 10.8012C4.47456 9.44592 4.47456 7.24064 5.82997 5.88523C6.48629 5.22863 7.35934 4.86699 8.28788 4.86699C9.21643 4.86699 10.0893 5.22877 10.7459 5.88523C12.1013 7.24064 12.1013 9.44592 10.7459 10.8012Z" fill="white"/>
</svg>
