<svg width="25" height="26" viewBox="0 0 25 26" fill="none" xmlns="http://www.w3.org/2000/svg">
<path fill-rule="evenodd" clip-rule="evenodd" d="M23.0939 23.8621L24.5679 22.3912C24.8593 22.1007 25.0156 21.7016 24.9988 21.2908C24.982 20.88 24.7936 20.495 24.4794 20.2291L21.1556 17.405C19.9864 16.4167 18.2534 16.487 17.1684 17.5668L15.9081 18.8244C15.3682 19.3144 14.5501 19.3363 13.9846 18.8759C11.2638 16.7029 8.79214 14.2365 6.6146 11.5215C6.1673 10.9446 6.21121 10.1278 6.71779 9.602L7.97805 8.34441C9.06011 7.26176 9.13057 5.53243 8.14019 4.36571L5.28799 1.01946C5.02149 0.705941 4.63567 0.518023 4.224 0.501225C3.81236 0.48446 3.41245 0.640385 3.12124 0.931228L1.64722 2.40208C-0.133714 4.17148 -0.513558 6.90886 0.718612 9.09455C4.38016 15.6879 9.81799 21.1269 16.4167 24.7961C18.6015 26.0087 21.3274 25.6274 23.0939 23.8621Z" fill="white"/>
</svg>
