<svg width="245" height="56" viewBox="0 0 245 56" fill="none" xmlns="http://www.w3.org/2000/svg">
<rect width="245" height="56" rx="15" fill="#252849"/>
<path d="M33.6953 20.9961V35H32.6992V22.002H24.2031V35H23.1973V20.9961H33.6953ZM48.5293 32.4121C49.7142 31.2142 50.3066 29.7428 50.3066 27.998C50.3066 26.2533 49.7142 24.7852 48.5293 23.5938C47.3509 22.3958 45.9089 21.7969 44.2031 21.7969C42.4974 21.7969 41.0521 22.3958 39.8672 23.5938C38.6888 24.7852 38.0996 26.2533 38.0996 27.998C38.0996 29.7428 38.6888 31.2142 39.8672 32.4121C41.0521 33.6035 42.4974 34.1992 44.2031 34.1992C45.9089 34.1992 47.3509 33.6035 48.5293 32.4121ZM49.2324 22.9004C50.6126 24.3001 51.3027 25.9993 51.3027 27.998C51.3027 29.9967 50.6126 31.696 49.2324 33.0957C47.8522 34.4954 46.1758 35.1953 44.2031 35.1953C42.2435 35.1953 40.5703 34.4954 39.1836 33.0957C37.7969 31.696 37.1035 29.9967 37.1035 27.998C37.1035 25.9993 37.7969 24.3001 39.1836 22.9004C40.5703 21.5007 42.2435 20.8008 44.2031 20.8008C46.1758 20.8008 47.8522 21.5007 49.2324 22.9004ZM52.0938 34.0039H52.8945C52.9596 33.9518 53.0475 33.8607 53.1582 33.7305C53.2754 33.6003 53.4772 33.291 53.7637 32.8027C54.0501 32.3079 54.304 31.7578 54.5254 31.1523C54.7467 30.5469 54.9453 29.7103 55.1211 28.6426C55.3034 27.5749 55.3945 26.4258 55.3945 25.1953V20.9961H63.6953V34.0039H65.4922V37.998H64.4961V35H53.0898V37.998H52.0938V34.0039ZM56.3906 25.1953C56.3906 26.3932 56.3092 27.513 56.1465 28.5547C55.9902 29.5964 55.8014 30.4395 55.5801 31.084C55.3652 31.722 55.1439 32.2721 54.916 32.7344C54.6882 33.1901 54.4928 33.5189 54.3301 33.7207L54.0957 34.0039H62.6895V22.002H56.3906V25.1953ZM78.8906 20.9961V35H77.8945V22.002H69.3984V35H68.3926V20.9961H78.8906ZM94.3984 35H93.4023V22.9004L84.0957 35H83.2949V20.9961H84.3008V33.0957L93.5977 20.9961H94.3984V35ZM99.8867 33.0957C98.5 31.696 97.8066 29.9967 97.8066 27.998C97.8066 25.9993 98.5 24.3001 99.8867 22.9004C101.273 21.5007 102.947 20.8008 104.906 20.8008C105.616 20.8008 106.296 20.9049 106.947 21.1133C107.598 21.3151 108.135 21.5658 108.559 21.8652C108.988 22.1582 109.363 22.4512 109.682 22.7441C110.007 23.0371 110.242 23.2812 110.385 23.4766L110.609 23.7988L109.906 24.4043C109.867 24.3392 109.802 24.2448 109.711 24.1211C109.626 23.9974 109.431 23.7858 109.125 23.4863C108.819 23.1868 108.484 22.9264 108.119 22.7051C107.761 22.4772 107.292 22.2689 106.713 22.0801C106.133 21.8913 105.531 21.7969 104.906 21.7969C103.201 21.7969 101.755 22.3958 100.57 23.5938C99.3919 24.7852 98.8027 26.2533 98.8027 27.998C98.8027 29.7428 99.3919 31.2142 100.57 32.4121C101.755 33.6035 103.201 34.1992 104.906 34.1992C105.544 34.1992 106.153 34.1113 106.732 33.9355C107.312 33.7533 107.79 33.5352 108.168 33.2812C108.552 33.0273 108.887 32.7734 109.174 32.5195C109.46 32.2656 109.672 32.054 109.809 31.8848L110.004 31.6016L110.707 32.1973C110.655 32.2754 110.574 32.3828 110.463 32.5195C110.359 32.6562 110.121 32.8971 109.75 33.2422C109.385 33.5872 108.995 33.8932 108.578 34.1602C108.168 34.4271 107.628 34.668 106.957 34.8828C106.293 35.0911 105.609 35.1953 104.906 35.1953C102.947 35.1953 101.273 34.4954 99.8867 33.0957ZM121.508 29.9023L118.402 22.4023L115.307 29.9023H121.508ZM121.908 30.8984H114.906L113.207 35H112.104L117.904 20.9961H118.91L124.701 35H123.607L121.908 30.8984ZM124.389 20.9961H134.584V22.002H129.984V35H128.988V22.002H124.389V20.9961ZM142.182 35H137.182V20.9961H138.188V26.3965H142.182C143.477 26.3965 144.551 26.8099 145.404 27.6367C146.257 28.4635 146.684 29.4857 146.684 30.7031C146.684 31.9141 146.257 32.9329 145.404 33.7598C144.551 34.5866 143.477 35 142.182 35ZM138.188 34.0039H142.182C143.223 34.0039 144.066 33.6947 144.711 33.0762C145.362 32.4512 145.688 31.6602 145.688 30.7031C145.688 29.7396 145.362 28.9486 144.711 28.3301C144.066 27.7116 143.223 27.4023 142.182 27.4023H138.188V34.0039ZM151.156 33.0957C149.77 31.696 149.076 29.9967 149.076 27.998C149.076 25.9993 149.77 24.3001 151.156 22.9004C152.543 21.5007 154.216 20.8008 156.176 20.8008C156.885 20.8008 157.566 20.9049 158.217 21.1133C158.868 21.3151 159.405 21.5658 159.828 21.8652C160.258 22.1582 160.632 22.4512 160.951 22.7441C161.277 23.0371 161.511 23.2812 161.654 23.4766L161.879 23.7988L161.176 24.4043C161.137 24.3392 161.072 24.2448 160.98 24.1211C160.896 23.9974 160.701 23.7858 160.395 23.4863C160.089 23.1868 159.753 22.9264 159.389 22.7051C159.031 22.4772 158.562 22.2689 157.982 22.0801C157.403 21.8913 156.801 21.7969 156.176 21.7969C154.47 21.7969 153.025 22.3958 151.84 23.5938C150.661 24.7852 150.072 26.2533 150.072 27.998C150.072 29.7428 150.661 31.2142 151.84 32.4121C153.025 33.6035 154.47 34.1992 156.176 34.1992C156.814 34.1992 157.423 34.1113 158.002 33.9355C158.581 33.7533 159.06 33.5352 159.438 33.2812C159.822 33.0273 160.157 32.7734 160.443 32.5195C160.73 32.2656 160.941 32.054 161.078 31.8848L161.273 31.6016L161.977 32.1973C161.924 32.2754 161.843 32.3828 161.732 32.5195C161.628 32.6562 161.391 32.8971 161.02 33.2422C160.655 33.5872 160.264 33.8932 159.848 34.1602C159.438 34.4271 158.897 34.668 158.227 34.8828C157.562 35.0911 156.879 35.1953 156.176 35.1953C154.216 35.1953 152.543 34.4954 151.156 33.0957ZM168.578 20.9961H173.871V35H172.875V29.1992H168.373L165.072 35H163.979L167.377 29.0039C167.299 28.9909 167.188 28.9648 167.045 28.9258C166.908 28.8802 166.658 28.7663 166.293 28.584C165.935 28.3952 165.622 28.1706 165.355 27.9102C165.089 27.6497 164.841 27.2689 164.613 26.7676C164.385 26.2663 164.271 25.7096 164.271 25.0977C164.271 23.9388 164.678 22.9655 165.492 22.1777C166.312 21.39 167.341 20.9961 168.578 20.9961ZM172.875 22.002H168.578C167.589 22.002 166.791 22.2917 166.186 22.8711C165.58 23.4505 165.277 24.196 165.277 25.1074C165.277 26.0124 165.58 26.7546 166.186 27.334C166.791 27.9134 167.589 28.2031 168.578 28.2031H172.875V22.002Z" fill="white"/>
<path d="M209.012 26.526L228.296 19.091C229.191 18.7677 229.972 19.3093 229.682 20.6627L229.684 20.661L226.401 36.1293C226.157 37.226 225.506 37.4927 224.594 36.976L219.594 33.291L217.182 35.6143C216.916 35.881 216.691 36.106 216.174 36.106L216.529 31.0177L225.796 22.646C226.199 22.291 225.706 22.091 225.174 22.4443L213.722 29.6543L208.786 28.1143C207.714 27.7743 207.691 27.0427 209.012 26.526Z" fill="white"/>
</svg>
