<svg width="40" height="40" viewBox="0 0 40 40" fill="none" xmlns="http://www.w3.org/2000/svg">
<rect width="40" height="40" rx="10" fill="#039BE5"/>
<path d="M20 40C31.0457 40 40 31.0457 40 20C40 8.9543 31.0457 0 20 0C8.9543 0 0 8.9543 0 20C0 31.0457 8.9543 40 20 40Z" fill="#039BE5"/>
<path d="M9.15174 19.5665L28.4351 12.1315C29.3301 11.8082 30.1117 12.3499 29.8217 13.7032L29.8234 13.7015L26.5401 29.1699C26.2967 30.2665 25.6451 30.5332 24.7334 30.0165L19.7334 26.3315L17.3217 28.6549C17.0551 28.9215 16.8301 29.1465 16.3134 29.1465L16.6684 24.0582L25.9351 15.6865C26.3384 15.3315 25.8451 15.1315 25.3134 15.4849L13.8617 22.6949L8.92507 21.1549C7.8534 20.8149 7.83007 20.0832 9.15174 19.5665Z" fill="white"/>
</svg>
